<?xml version="1.0" encoding="UTF-8" standalone="no"?>
<!-- Created with Inkscape (http://www.inkscape.org/) -->

<svg
   width="16.933332mm"
   height="16.933332mm"
   viewBox="0 0 16.933332 16.933332"
   version="1.1"
   id="svg1136"
   inkscape:version="1.2.1 (9c6d41e, 2022-07-14)"
   sodipodi:docname="logo_64.svg"
   inkscape:export-filename="icon1000.png"
   inkscape:export-xdpi="200"
   inkscape:export-ydpi="200"
   xmlns:inkscape="http://www.inkscape.org/namespaces/inkscape"
   xmlns:sodipodi="http://sodipodi.sourceforge.net/DTD/sodipodi-0.dtd"
   xmlns="http://www.w3.org/2000/svg"
   xmlns:svg="http://www.w3.org/2000/svg">
  <sodipodi:namedview
     id="namedview1138"
     pagecolor="#ffffff"
     bordercolor="#000000"
     borderopacity="0.25"
     inkscape:showpageshadow="2"
     inkscape:pageopacity="0.0"
     inkscape:pagecheckerboard="0"
     inkscape:deskcolor="#d1d1d1"
     inkscape:document-units="mm"
     showgrid="false"
     inkscape:zoom="5.3720276"
     inkscape:cx="61.42932"
     inkscape:cy="44.210495"
     inkscape:window-width="1366"
     inkscape:window-height="699"
     inkscape:window-x="0"
     inkscape:window-y="0"
     inkscape:window-maximized="1"
     inkscape:current-layer="layer1" />
  <defs
     id="defs1133" />
  <g
     inkscape:label="Layer 1"
     inkscape:groupmode="layer"
     id="layer1"
     transform="translate(15.600796,13.00989)">
    <rect
       style="fill:#000000;stroke-width:0.0380129"
       id="rect504"
       width="16.933332"
       height="16.933332"
       x="-15.600796"
       y="-13.00989" />
    <g
       id="g409"
       transform="matrix(1.1718751,0,0,1.1718751,0.54741121,0.52632899)">
      <rect
         style="fill:#ffffff;stroke-width:0.0503072"
         id="rect558"
         width="11.288888"
         height="0.56444442"
         x="-12.199358"
         y="-3.2915652" />
      <path
         id="path612"
         style="fill:#ffffff;stroke-width:0.0390733"
         d="m -5.9904647,-6.4426844 a 4.2333332,4.2333332 0 0 0 -4.2333333,4.2333332 h 0.5644454 a 3.6688887,3.6688887 0 0 1 3.6688879,-3.6688879 3.6688887,3.6688887 0 0 1 3.6688893,3.6688879 h 0.5644439 a 4.2333332,4.2333332 0 0 0 -4.2333332,-4.2333332 z" />
      <path
         id="path620"
         style="fill:#ffffff;stroke-width:0.0390733"
         d="m -7.1193567,-6.4426844 a 4.2333332,4.2333332 0 0 0 -4.2333333,4.2333332 h 0.564445 a 3.6688887,3.6688887 0 0 1 3.6688883,-3.6688879 3.6688887,3.6688887 0 0 1 3.6688893,3.6688879 h 0.564444 a 4.2333332,4.2333332 0 0 0 -4.2333333,-4.2333332 z" />
    </g>
  </g>
</svg>
